<?xml version="1.0" encoding="utf-8"?>
<!-- Generator: Adobe Illustrator 19.1.0, SVG Export Plug-In . SVG Version: 6.00 Build 0)  -->
<svg version="1.1" id="Layer_1" xmlns="http://www.w3.org/2000/svg" xmlns:xlink="http://www.w3.org/1999/xlink" x="0px" y="0px"
	 viewBox="0 0 44 44" style="enable-background:new 0 0 44 44;" xml:space="preserve">
<style type="text/css">
	.st0{fill:none;}
	.st1{fill:none;stroke:#7E7E81;stroke-miterlimit:10;}
	.st2{fill:none;stroke:#7E7E81;stroke-miterlimit:10;stroke-dasharray:1,1;}
</style>
<rect x="0" y="0" class="st0" width="44" height="44"/>
<g>
	<circle class="st1" cx="22.6" cy="22.6" r="4.8"/>
	<circle class="st1" cx="33.3" cy="10.7" r="1.2"/>
	<circle class="st1" cx="33.3" cy="23.8" r="1.2"/>
	<circle class="st1" cx="27.4" cy="33.3" r="1.2"/>
	<circle class="st1" cx="13.1" cy="30.9" r="1.2"/>
	<circle class="st1" cx="10.7" cy="16.6" r="1.2"/>
	<circle class="st1" cx="17.8" cy="10.7" r="1.2"/>
	<path class="st2" d="M24.6,17.9c0-2.7,0.6-4.5,1.8-5.4s3.1-1.4,5.8-1.5"/>
	<path class="st2" d="M18.3,24.4c-2.2-0.5-3.5-0.4-3.8,0.5c-0.3,0.8-0.7,2.4-1.2,4.8"/>
	<path class="st2" d="M19.2,19.1c-1-1.6-2.1-2.4-3-2.3c-1,0-2.3,0-4,0"/>
	<path class="st2" d="M21.7,17.6c-0.9-1.8-1.4-2.9-1.4-3.5s-0.4-1.6-1.1-3.1"/>
	<path class="st2" d="M27.4,21.9c1.4,0,2.4,0,2.8,0s1.3,0.3,2.3,1"/>
	<path class="st2" d="M24.6,26.9c0.7,0.6,1.1,1.3,1.3,2c0.2,0.7,0.5,1.8,1.1,3.2"/>
</g>
</svg>
