<?xml version="1.0" encoding="utf-8"?>
<!-- Generator: Adobe Illustrator 19.1.0, SVG Export Plug-In . SVG Version: 6.00 Build 0)  -->
<svg version="1.1" id="Layer_1" xmlns="http://www.w3.org/2000/svg" xmlns:xlink="http://www.w3.org/1999/xlink" x="0px" y="0px"
	 viewBox="0 0 44 44" style="enable-background:new 0 0 44 44;" xml:space="preserve">
<style type="text/css">
	.st0{fill:none;}
	.st1{fill:none;stroke:#7A8C99;stroke-miterlimit:10;}
</style>
<rect x="0" y="0" class="st0" width="44" height="44"/>
<g>
	<path class="st1" d="M24,30l-2.6,0C20.1,26.1,19,22.7,18,20c-1.5-4.1-2.4-6.1-0.2-8.4s6-2.2,8.3,0.2s1.2,4.6,0.2,8.4
		C25.6,22.7,24.9,26,24,30z"/>
	<path class="st1" d="M25.4,33.7c-3.3,0.3-4.9,0.3-4.9,0c0-0.5,4.9-1.3,4.9-2.1s-4.9-0.5-4.9-0.9s4.5-0.4,4.9-0.8
		c0.4-0.4-1.6,1-2.5-1.6c-0.8-2.6-1-6.6-0.8-8.5c0.2-1.9,1.9-1,1.7-1.4c-0.3-0.4-2.6,0.3-2.6,0c0-0.3,2.6-1,2.6-1.3
		c0-0.2-0.9-0.2-2.6,0"/>
</g>
</svg>
