<?xml version="1.0" encoding="utf-8"?>
<!-- Generator: Adobe Illustrator 19.1.0, SVG Export Plug-In . SVG Version: 6.00 Build 0)  -->
<svg version="1.1" id="Layer_1" xmlns="http://www.w3.org/2000/svg" xmlns:xlink="http://www.w3.org/1999/xlink" x="0px" y="0px"
	 viewBox="0 0 44 44" style="enable-background:new 0 0 44 44;" xml:space="preserve">
<style type="text/css">
	.st0{fill:none;}
	.st1{fill:none;stroke:#7E7E81;stroke-miterlimit:10;}
	.st2{fill:none;stroke:#7E7E81;stroke-width:0.5;stroke-miterlimit:10;stroke-dasharray:1,1;}
	.st3{fill:none;stroke:#7E7E81;stroke-width:0.5;stroke-miterlimit:10;}
</style>
<rect x="0" y="0" class="st0" width="44" height="44"/>
<g>
	<circle class="st1" cx="21.6" cy="22" r="12.3"/>
	<path class="st1" d="M14,13c0,0.9,0.7,1.4,2.2,1.4c0,0.8,0,1.5,0,2.3c0,0.8,0.4,2,1.2,3.8c-1.1-1.7-1.7-1.3-1.7,1.2s0.6,4,1.7,4.6
		c2.4,0.7,2.8,1.2,1.3,1.5c-2.3,0.5-3.3-1.5-4-1.5s-1.6-3-2.6-3s-1.3-3.1-1.9-3.5"/>
	<path class="st2" d="M4.6,14.6c-2.4,1.2-3.5,3-3.4,5.6c0.3,3.8,10.9,11.2,20.5,11c9.7-0.2,20.7-5.4,21-11c0.2-3.7-1.5-5.6-5.3-5.6"
		/>
	<polyline class="st3" points="5.7,12.2 4.5,13.9 8.5,13.9 	"/>
	<polyline class="st3" points="33.9,26.9 37.4,26.9 35.6,30.3 	"/>
	<path class="st1" d="M30.6,13.9c-0.9,0-1.7,0-2.4,0c-1.1,0-1.9-0.4-2.3,1.4s-2.4,1.3-2.1,2.6c0.3,1.3-1.5,2.5,0.3,2.4
		s2.5-1.2,1.8,1.5c-0.7,2.7-2.4,3.6-0.7,5.7s3,4.2,3,2.1s-0.7-6.1,0.8-6.2c1.6,0,1.2-1.6,2.9-1.6c1.1,0,1.9-0.5,2.4-1.5"/>
	<polyline class="st3" points="38,16.9 34.7,14.7 39.8,12.2 	"/>
	<polyline class="st3" points="7,24.5 9.2,27.8 4.5,27.8 	"/>
</g>
</svg>
