<?xml version="1.0" encoding="utf-8"?>
<!-- Generator: Adobe Illustrator 19.1.0, SVG Export Plug-In . SVG Version: 6.00 Build 0)  -->
<svg version="1.1" xmlns="http://www.w3.org/2000/svg" xmlns:xlink="http://www.w3.org/1999/xlink" x="0px" y="0px"
	 viewBox="0 0 268.1 243.3" style="enable-background:new 0 0 268.1 243.3;" xml:space="preserve">
<style type="text/css">
	.st0{fill:none;}
	.st1{fill:#FFFFFF;}
	.st2{fill:#005598;}
	.st3{fill:#59C5CA;}
	.st4{fill:#0A9999;}
	.st5{opacity:0.1;}
	.st6{fill:#2E3192;}
</style>
<g id="Layer_1">
</g>
<g id="Layer_2">
	<rect class="st0" width="268.1" height="243.3"/>
	<g>
		<g>
			<circle class="st1" cx="98.4" cy="147.8" r="84"/>
			<path class="st2" d="M182.5,147.8c0,0,0-0.5,0-1.5c0-1,0-2.5-0.2-4.4c-0.3-3.8-0.9-9.5-2.9-16.5c-2-6.9-5.3-15.2-10.9-23.4
				c-5.6-8.3-13.5-16.6-23.9-23.2c-5.2-3.3-10.9-6.1-17.1-8.2c-6.2-2.1-12.9-3.5-19.7-4.1c-1.7-0.2-3.5-0.2-5.2-0.3
				c-0.9,0-1.7,0-2.6,0l-1.3,0l-1.3,0.1c-0.9,0.1-1.8,0.1-2.7,0.2c-0.9,0.1-1.7,0.2-2.6,0.3c-1.7,0.1-3.5,0.5-5.3,0.8
				c-3.5,0.7-7.1,1.5-10.5,2.6c-1.8,0.5-3.5,1.2-5.2,1.8c-0.8,0.4-1.7,0.7-2.5,1.1l-1.3,0.5l-1.2,0.6c-13.4,6.3-25.3,16.7-33.6,29.7
				c-4.1,6.5-7.4,13.6-9.6,21l-0.8,2.8c-0.2,0.9-0.4,1.9-0.6,2.8l-0.3,1.4l-0.2,1.4c-0.2,1-0.4,1.9-0.5,2.9
				c-0.2,1.9-0.5,3.8-0.6,5.8c-0.1,1-0.2,1.9-0.2,2.9l-0.1,2.8c0.1,2,0,4.2,0.2,6c0.1,0.9,0.1,1.9,0.2,2.8l0.4,2.9
				c0.6,3.8,1.4,7.6,2.5,11.3c2.2,7.4,5.4,14.5,9.6,21c8.3,12.9,20.2,23.3,33.6,29.7l1.2,0.6l1.3,0.5c0.9,0.4,1.7,0.7,2.5,1.1
				c1.7,0.6,3.4,1.3,5.2,1.8c3.5,1.2,7,2,10.5,2.6c1.8,0.3,3.5,0.6,5.3,0.8c0.9,0.1,1.8,0.2,2.7,0.3c0.9,0.1,1.8,0.1,2.7,0.2
				l1.3,0.1l1.4,0c0.9,0,1.8,0,2.7,0c1.7-0.1,3.4-0.1,5.1-0.3c6.9-0.6,13.5-1.9,19.7-4.1c6.2-2.2,11.9-5,17.1-8.2
				c10.4-6.5,18.3-14.9,23.9-23.1c5.7-8.3,9-16.5,10.9-23.4c2-6.9,2.6-12.6,2.9-16.5c0.2-1.9,0.2-3.4,0.2-4.4
				C182.4,148.3,182.5,147.8,182.5,147.8z M182.5,147.8c0,0,0,0.5,0,1.5c0,1,0,2.5-0.2,4.4c-0.2,3.9-0.9,9.5-2.7,16.5
				c-0.9,3.5-2.2,7.3-3.9,11.3c-1.7,4-3.8,8.2-6.6,12.5c-5.4,8.5-13.1,17.3-23.3,24.5c-10.2,7.2-23.1,12.8-37.5,14.9
				c-1.8,0.3-3.7,0.4-5.5,0.6c-0.9,0.1-1.8,0.1-2.7,0.2l-1.4,0.1l-1.5,0c-0.9,0-1.9,0-2.8,0c-0.9,0-1.9-0.1-2.8-0.1
				c-1.9,0-3.8-0.3-5.7-0.5c-3.8-0.5-7.7-1.1-11.5-2.1c-1.9-0.4-3.8-1.1-5.7-1.7c-0.9-0.3-1.9-0.7-2.8-1l-1.4-0.5l-1.4-0.6
				c-7.5-3.1-14.6-7.3-21.2-12.5c-6.5-5.2-12.4-11.5-17.2-18.6c-2.4-3.5-4.6-7.3-6.5-11.2c-1.9-3.9-3.4-8-4.8-12.1
				c-1.3-4.1-2.2-8.4-2.9-12.7l-0.4-3.2c-0.2-1.1-0.2-2.2-0.3-3.3l-0.1-1.7c0-0.6,0-1-0.1-1.6l-0.1-3.1l0.1-3.4
				c0-1.1,0.1-2.2,0.2-3.3c0.1-2.2,0.4-4.3,0.7-6.5c0.7-4.3,1.6-8.6,2.9-12.7c1.3-4.1,2.9-8.2,4.8-12.1c1.9-3.9,4.1-7.6,6.5-11.1
				c4.8-7.1,10.7-13.3,17.2-18.5c6.5-5.2,13.7-9.4,21.1-12.5l1.4-0.6l1.4-0.5c0.9-0.3,1.9-0.7,2.8-1c1.9-0.6,3.8-1.2,5.7-1.7
				c3.8-1,7.7-1.7,11.5-2.1c1.9-0.2,3.8-0.4,5.7-0.5c1,0,1.9-0.1,2.9-0.1c0.9,0,1.8,0,2.7,0l1.4,0l1.4,0.1c0.9,0.1,1.9,0.1,2.8,0.2
				c1.8,0.2,3.7,0.3,5.5,0.6c14.4,2.1,27.3,7.7,37.5,14.9c10.2,7.3,17.9,16,23.3,24.5c2.7,4.3,4.9,8.5,6.6,12.5
				c1.7,4,3,7.8,3.9,11.3c1.9,7,2.5,12.7,2.7,16.5c0.2,1.9,0.1,3.4,0.2,4.4C182.5,147.3,182.5,147.8,182.5,147.8z"/>
		</g>
		<g>
			<g>
				<path class="st3" d="M42.6,185.3c-22,0.3-20-60.5-17.4-75.5C34.3,58.6,73.6,16,122,11.9c46.7-3.9,91.2,29.1,106.3,77.3
					c5.3,16.9,11.6,69.7-9,74.3c-12.3,2.7-28.2-18.2-39.7-25.8c-15.4-10.2-33-15.4-51.4-14c-18.9,1.4-36.1,10.9-49.4,24.1
					C68.5,157.9,56.2,185.1,42.6,185.3z"/>
				<path class="st4" d="M42.6,185.3c0,0-1-0.3-3-0.9c-0.5-0.2-1-0.2-1.6-0.7c-0.6-0.5-1.2-1.1-1.9-1.7c-0.7-0.7-1.4-1.2-2.2-2.2
					c-0.7-1.2-1.5-2.6-2.4-4c-5.6-10.8-6.5-22.7-7.8-34.5c-1-23.7,4.8-45.5,14.3-67c1.6-3.1,3.3-6.2,5.2-9.1c1.8-3,3.7-5.9,5.9-8.8
					c4.4-5.8,9-11.2,14.6-16.1c2.8-2.5,5.6-4.8,8.5-7c3.1-2.2,6.2-4.2,9.5-6c1.6-0.9,3.2-1.8,4.9-2.7c1.7-0.8,3.4-1.6,5.1-2.3
					c3.5-1.4,7-2.7,10.6-3.8c3.6-1.1,7.3-1.8,11-2.5c2.2-0.4,3.4-0.5,5.6-0.8c1.1-0.1,1.7-0.2,2.8-0.3c0.5,0-0.3,0-0.1,0
					c0.1,0,0.2,0,0.4,0c0.3,0,0.4,0,0.7,0c0.6,0,0.9,0,1.5-0.1c7.8-0.2,16.4,0.3,23.2,1.9c3.6,0.8,7.1,1.7,10.7,2.9
					c3.5,1.3,7,2.7,10.4,4.3c3.5,1.6,6.6,3.5,9.8,5.5c1.9,1.2,2.8,1.8,4.7,3.1c0.9,0.7,1.4,1,2.3,1.7c0.9,0.7,1.3,1,2.1,1.7
					c2.8,2.3,5.6,4.8,8.3,7.5c2.6,2.6,4.9,5.3,7.2,8.2c1.4,1.7,2,2.6,3.4,4.3c1,1.4,2,2.9,2.9,4.4c1.8,2.9,3.7,6.1,5.3,9.1
					c5.3,12.2,8.7,22.6,11.1,35.7c0.3,2.6,0.5,5.2,0.6,7.8c0,0.6,0.1,1.3,0.1,1.9c0,0.7,0,1-0.1,1.7c-0.1,1.4-0.1,2-0.2,3.4
					c-0.1,1.4-0.1,2.1-0.2,3.4c-0.1,1.1-0.3,1.9-0.5,2.9c-0.4,1.8-0.7,3.9-1.2,5.6c-0.7,1.8-1,2.7-1.7,4.4c-0.2,0.4-0.3,0.7-0.4,1.1
					c-0.2,0.3-0.3,0.5-0.5,0.8c-0.4,0.6-0.6,1-1.1,1.6c-0.4,0.6-0.6,1-1.1,1.6c-0.3,0.6-0.8,0.7-1.2,1.1c-0.5,0.4-0.8,0.6-1.3,0.9
					c-0.3,0.2-0.4,0.3-0.6,0.5c-0.1,0.1-0.2,0.1-0.3,0.2c-0.1,0-0.1,0.1-0.2,0.1c0,0,0,0-0.1,0.1c0.1,0-0.3,0.1,0.1,0
					c-1.2,0.3-1.9,0.5-3.1,0.8c-0.3,0.1-0.5,0.1-0.8,0.2c-0.3,0.1-0.5,0.2-0.8,0.1c-0.6-0.1-0.9-0.1-1.4-0.2
					c-0.6-0.1-0.9-0.1-1.4-0.1c-0.3,0-0.4,0-0.7,0c-0.3-0.1-0.5-0.2-0.8-0.3c-1.1-0.4-2.1-0.7-3.2-1c-1.1-0.4-2.3-1.2-3.4-1.6
					c-0.6-0.3-1.1-0.4-1.7-0.8c-0.7-0.5-1.1-0.7-1.8-1.1c-0.7-0.4-1.1-0.6-1.8-1c-0.4-0.2-0.5-0.3-0.9-0.4c-0.3-0.2-0.6-0.4-0.9-0.6
					c-1.3-0.8-2.5-1.5-3.8-2.2c-5.2-3.2-10.7-6.1-16.4-8.5c-1.4-0.6-2.9-1.3-4.3-1.8c-0.7-0.3-1.4-0.5-2.2-0.7
					c-0.9-0.3-1.3-0.5-2.2-0.8c-1.5-0.5-2.9-0.8-4.4-1.2c-1.5-0.4-3-0.8-4.5-1c-6-1.3-11.9-1.6-17.8-1.6c-2.9,0.2-5.8,0.2-8.7,0.6
					c-0.2,0-0.3,0-0.5,0.1c-0.1,0-0.2,0-0.3,0c-0.1,0-0.1,0-0.1,0c-0.1,0,0.2,0,0,0c-0.4,0-0.7,0.1-1.1,0.1
					c-0.7,0.1-1.5,0.2-2.2,0.3c-0.7,0.1-1.5,0.3-2.2,0.4c-0.7,0.2-1.5,0.4-2.1,0.5c-1.4,0.3-2.7,0.6-4,1c-0.7,0.2-1.3,0.4-2,0.6
					c-0.7,0.2-1.3,0.4-2,0.6c-1.3,0.4-2.7,0.9-4,1.5c-1.3,0.5-2.6,1-3.9,1.6c-2.6,1.3-5,2.4-7.4,3.9c-1.2,0.8-2.4,1.5-3.5,2.2
					c-1.2,0.8-2.3,1.6-3.4,2.5c-8.3,6.2-16.2,14.7-22.2,23.1c-5.9,8-10.4,14.3-14,18.6c-0.9,1-1.8,1.9-2.6,2.9
					c-0.8,0.8-1.6,1.1-2.3,1.7c-0.7,0.5-1.4,1-1.9,1.4c-0.6,0.4-1.1,0.4-1.6,0.6C43.6,185,42.6,185.3,42.6,185.3z M42.6,185.3
					c0,0,1-0.3,3-0.7c0.5-0.2,1-0.1,1.6-0.5c0.6-0.4,1.2-0.9,2-1.4c0.7-0.5,1.5-0.9,2.3-1.6c0.8-0.9,1.7-1.7,2.6-2.6
					c3.7-3.9,8.2-9.8,14-17.3c6-8,13.8-16.1,22.1-21.8c1.1-0.8,2.3-1.6,3.4-2.3c1.2-0.7,2.4-1.3,3.6-2.1c2.4-1.4,4.9-2.4,7.5-3.6
					c1.3-0.5,2.6-1,3.9-1.4c1.3-0.5,2.7-0.9,4-1.2c0.7-0.2,1.4-0.3,2-0.5c0.7-0.1,1.4-0.4,2.1-0.5c1.4-0.3,2.8-0.6,4.3-0.7
					c0.7-0.1,1.4-0.2,2.1-0.3c0.7-0.1,1.4-0.2,2-0.2c0.7-0.1,1.4-0.1,2-0.1c0.4,0,0.6,0,1,0c-0.1,0,0.3,0,0.3,0c0.1,0,0.1,0,0.1,0
					c0.1,0,0.2,0,0.3,0c0.2,0,0.3,0,0.5,0c2.9-0.2,5.8,0.1,8.8,0.2c6,0.6,12.1,1.8,18.3,4.1c1.6,0.5,3.1,1.1,4.7,1.9
					c1.6,0.7,3.1,1.4,4.7,2.3c0.9,0.5,1.4,0.8,2.3,1.4c0.8,0.4,1.5,0.9,2.3,1.4c1.5,0.9,3.1,2.1,4.6,3.3c1.5,1.1,3,2.3,4.5,3.6
					c0.4,0.3,0.7,0.7,1.1,1c0.4,0.4,0.7,0.5,1.1,0.9c0.9,0.8,1.3,1.2,2.2,2c0.9,0.9,1.3,1.3,2.1,2.2c0.7,0.8,1.4,1.4,2.1,2.2
					c1.4,1.4,2.7,3.1,4.1,4.7c5.3,6.3,10.2,12.9,14.8,18.5c1.2,1.1,2.3,2.4,3.5,3.6c0.3,0.4,0.5,0.5,0.9,0.9
					c0.4,0.2,0.5,0.4,0.9,0.6c0.7,0.5,1.1,0.7,1.8,1.2c0.7,0.5,1.1,0.7,1.8,1.2c0.3,0.3,0.6,0.3,0.8,0.4c0.3,0.1,0.5,0.1,0.8,0.2
					c1.2,0.3,1.9,0.5,3.1,0.9c0.5,0,0.2,0,0.3,0c0,0,0.1,0,0.1,0c0.1,0,0.1,0,0.2-0.1c0.2,0,0.3-0.1,0.4-0.1
					c0.3-0.1,0.5-0.1,0.9-0.2c0.7-0.2,1-0.3,1.7-0.5c0.6-0.3,1.1-0.2,1.7-0.8c0.7-0.6,1-0.9,1.7-1.5c0.7-0.6,1-0.9,1.7-1.6
					c0.3-0.3,0.5-0.5,0.8-0.8c0.3-0.5,0.5-0.8,0.8-1.3c1.3-2.2,1.9-3.3,3.1-5.5c5.1-12.1,6.4-24.6,7.1-37.6c0.1-4-0.1-8.3-0.4-12.5
					c-0.2-2.1-0.3-4.1-0.6-6.4c-0.4-2.7-0.6-4.1-1-6.7c-0.5-2.7-0.7-4-1.3-6.6c-0.3-1.3-0.4-2-0.7-3.3c-0.3-1.1-0.6-2.3-0.9-3.4
					c-1.3-4.6-2.7-9-4.3-13.4c-1.7-4.4-3.8-9-5.9-13.2c-1.1-2.1-2.2-4.2-3.4-6.3c-1.5-2.5-2.3-3.8-3.9-6.2c-2.7-4-5.4-7.8-8.6-11.5
					c-3.2-3.7-6.5-7.1-10-10.3c-1-1-1.6-1.4-2.6-2.3c-1.1-0.9-1.7-1.4-2.8-2.3c-2.2-1.8-3.4-2.6-5.7-4.2c-3.9-2.7-7.7-5.1-11.9-7.2
					c-4.1-2.1-8.4-3.9-12.6-5.4c-4.3-1.5-8.9-2.7-13.4-3.6c-9.3-2-17.3-2.1-25.6-1.7c-1.4,0.1-2.2,0.1-3.6,0.3
					c-1.3,0.2-1.9,0.2-3.2,0.4c-2.1,0.3-4.2,0.7-6.3,1.1c-4.2,0.9-8.3,1.9-12.3,3.3c-3.9,1.4-7.8,3-11.6,4.8
					c-1.9,0.9-3.7,1.8-5.5,2.9c-1.8,1-3.5,2.1-5.2,3.2c-3.4,2.2-6.7,4.6-9.9,7.1c-3.1,2.6-5.9,5.3-8.7,8.1
					c-5.7,5.6-10.3,11.6-14.5,18c-2.2,3.2-3.9,6.3-5.6,9.5c-1.7,3.2-3.3,6.4-4.8,9.7c-8.1,21.7-13,43.5-11.2,66.9
					c1.6,11.1,2.9,22.5,8.6,32.4c0.8,1.3,1.6,2.6,2.4,3.7c0.8,1,1.5,1.5,2.2,2.1c0.7,0.6,1.3,1.1,1.9,1.6c0.6,0.5,1.1,0.4,1.6,0.6
					C41.5,185,42.6,185.3,42.6,185.3z"/>
			</g>
		</g>
		<g>
			<circle class="st1" cx="98.4" cy="147.8" r="84"/>
			<path class="st2" d="M182.5,147.8c0,0,0-0.5,0-1.5c0-1,0-2.5-0.2-4.4c-0.3-3.8-0.9-9.5-2.9-16.5c-2-6.9-5.3-15.2-10.9-23.4
				c-5.6-8.3-13.5-16.6-23.9-23.2c-5.2-3.3-10.9-6.1-17.1-8.2c-6.2-2.1-12.9-3.5-19.7-4.1c-1.7-0.2-3.5-0.2-5.2-0.3
				c-0.9,0-1.7,0-2.6,0l-1.3,0l-1.3,0.1c-0.9,0.1-1.8,0.1-2.7,0.2c-0.9,0.1-1.7,0.2-2.6,0.3c-1.7,0.1-3.5,0.5-5.3,0.8
				c-3.5,0.7-7.1,1.5-10.5,2.6c-1.8,0.5-3.5,1.2-5.2,1.8c-0.8,0.4-1.7,0.7-2.5,1.1l-1.3,0.5l-1.2,0.6c-13.4,6.3-25.3,16.7-33.6,29.7
				c-4.1,6.5-7.4,13.6-9.6,21l-0.8,2.8c-0.2,0.9-0.4,1.9-0.6,2.8l-0.3,1.4l-0.2,1.4c-0.2,1-0.4,1.9-0.5,2.9
				c-0.2,1.9-0.5,3.8-0.6,5.8c-0.1,1-0.2,1.9-0.2,2.9l-0.1,2.8c0.1,2,0,4.2,0.2,6c0.1,0.9,0.1,1.9,0.2,2.8l0.4,2.9
				c0.6,3.8,1.4,7.6,2.5,11.3c2.2,7.4,5.4,14.5,9.6,21c8.3,12.9,20.2,23.3,33.6,29.7l1.2,0.6l1.3,0.5c0.9,0.4,1.7,0.7,2.5,1.1
				c1.7,0.6,3.4,1.3,5.2,1.8c3.5,1.2,7,2,10.5,2.6c1.8,0.3,3.5,0.6,5.3,0.8c0.9,0.1,1.8,0.2,2.7,0.3c0.9,0.1,1.8,0.1,2.7,0.2
				l1.3,0.1l1.4,0c0.9,0,1.8,0,2.7,0c1.7-0.1,3.4-0.1,5.1-0.3c6.9-0.6,13.5-1.9,19.7-4.1c6.2-2.2,11.9-5,17.1-8.2
				c10.4-6.5,18.3-14.9,23.9-23.1c5.7-8.3,9-16.5,10.9-23.4c2-6.9,2.6-12.6,2.9-16.5c0.2-1.9,0.2-3.4,0.2-4.4
				C182.4,148.3,182.5,147.8,182.5,147.8z M182.5,147.8c0,0,0,0.5,0,1.5c0,1,0,2.5-0.2,4.4c-0.2,3.9-0.9,9.5-2.7,16.5
				c-0.9,3.5-2.2,7.3-3.9,11.3c-1.7,4-3.8,8.2-6.6,12.5c-5.4,8.5-13.1,17.3-23.3,24.5c-10.2,7.2-23.1,12.8-37.5,14.9
				c-1.8,0.3-3.7,0.4-5.5,0.6c-0.9,0.1-1.8,0.1-2.7,0.2l-1.4,0.1l-1.5,0c-0.9,0-1.9,0-2.8,0c-0.9,0-1.9-0.1-2.8-0.1
				c-1.9,0-3.8-0.3-5.7-0.5c-3.8-0.5-7.7-1.1-11.5-2.1c-1.9-0.4-3.8-1.1-5.7-1.7c-0.9-0.3-1.9-0.7-2.8-1l-1.4-0.5l-1.4-0.6
				c-7.5-3.1-14.6-7.3-21.2-12.5c-6.5-5.2-12.4-11.5-17.2-18.6c-2.4-3.5-4.6-7.3-6.5-11.2c-1.9-3.9-3.4-8-4.8-12.1
				c-1.3-4.1-2.2-8.4-2.9-12.7l-0.4-3.2c-0.2-1.1-0.2-2.2-0.3-3.3l-0.1-1.7c0-0.6,0-1-0.1-1.6l-0.1-3.1l0.1-3.4
				c0-1.1,0.1-2.2,0.2-3.3c0.1-2.2,0.4-4.3,0.7-6.5c0.7-4.3,1.6-8.6,2.9-12.7c1.3-4.1,2.9-8.2,4.8-12.1c1.9-3.9,4.1-7.6,6.5-11.1
				c4.8-7.1,10.7-13.3,17.2-18.5c6.5-5.2,13.7-9.4,21.1-12.5l1.4-0.6l1.4-0.5c0.9-0.3,1.9-0.7,2.8-1c1.9-0.6,3.8-1.2,5.7-1.7
				c3.8-1,7.7-1.7,11.5-2.1c1.9-0.2,3.8-0.4,5.7-0.5c1,0,1.9-0.1,2.9-0.1c0.9,0,1.8,0,2.7,0l1.4,0l1.4,0.1c0.9,0.1,1.9,0.1,2.8,0.2
				c1.8,0.2,3.7,0.3,5.5,0.6c14.4,2.1,27.3,7.7,37.5,14.9c10.2,7.3,17.9,16,23.3,24.5c2.7,4.3,4.9,8.5,6.6,12.5
				c1.7,4,3,7.8,3.9,11.3c1.9,7,2.5,12.7,2.7,16.5c0.2,1.9,0.1,3.4,0.2,4.4C182.5,147.3,182.5,147.8,182.5,147.8z"/>
		</g>
		<g>
			<path class="st4" d="M42.6,185.3c0,0-1-0.3-3-0.9c-0.5-0.2-1-0.2-1.6-0.7c-0.6-0.5-1.2-1.1-1.9-1.7c-0.7-0.7-1.4-1.2-2.2-2.2
				c-0.7-1.2-1.5-2.6-2.4-4c-5.6-10.8-6.5-22.7-7.8-34.5c-1-23.7,4.8-45.5,14.3-67c1.6-3.1,3.3-6.2,5.2-9.1c1.8-3,3.7-5.9,5.9-8.8
				c4.4-5.8,9-11.2,14.6-16.1c2.8-2.5,5.6-4.8,8.5-7c3.1-2.2,6.2-4.2,9.5-6c1.6-0.9,3.2-1.8,4.9-2.7c1.7-0.8,3.4-1.6,5.1-2.3
				c3.5-1.4,7-2.7,10.6-3.8c3.6-1.1,7.3-1.8,11-2.5c2.2-0.4,3.4-0.5,5.6-0.8c1.1-0.1,1.7-0.2,2.8-0.3c0.5,0-0.3,0-0.1,0
				c0.1,0,0.2,0,0.4,0c0.3,0,0.4,0,0.7,0c0.6,0,0.9,0,1.5-0.1c7.8-0.2,16.4,0.3,23.2,1.9c3.6,0.8,7.1,1.7,10.7,2.9
				c3.5,1.3,7,2.7,10.4,4.3c3.5,1.6,6.6,3.5,9.8,5.5c1.9,1.2,2.8,1.8,4.7,3.1c0.9,0.7,1.4,1,2.3,1.7c0.9,0.7,1.3,1,2.1,1.7
				c2.8,2.3,5.6,4.8,8.3,7.5c2.6,2.6,4.9,5.3,7.2,8.2c1.4,1.7,2,2.6,3.4,4.3c1,1.4,2,2.9,2.9,4.4c1.8,2.9,3.7,6.1,5.3,9.1
				c5.3,12.2,8.7,22.6,11.1,35.7c0.3,2.6,0.5,5.2,0.6,7.8c0,0.6,0.1,1.3,0.1,1.9c0,0.7,0,1-0.1,1.7c-0.1,1.4-0.1,2-0.2,3.4
				c-0.1,1.4-0.1,2.1-0.2,3.4c-0.1,1.1-0.3,1.9-0.5,2.9c-0.4,1.8-0.7,3.9-1.2,5.6c-0.7,1.8-1,2.7-1.7,4.4c-0.2,0.4-0.3,0.7-0.4,1.1
				c-0.2,0.3-0.3,0.5-0.5,0.8c-0.4,0.6-0.6,1-1.1,1.6c-0.4,0.6-0.6,1-1.1,1.6c-0.3,0.6-0.8,0.7-1.2,1.1c-0.5,0.4-0.8,0.6-1.3,0.9
				c-0.3,0.2-0.4,0.3-0.6,0.5c-0.1,0.1-0.2,0.1-0.3,0.2c-0.1,0-0.1,0.1-0.2,0.1c0,0,0,0-0.1,0.1c0.1,0-0.3,0.1,0.1,0
				c-1.2,0.3-1.9,0.5-3.1,0.8c-0.3,0.1-0.5,0.1-0.8,0.2c-0.3,0.1-0.5,0.2-0.8,0.1c-0.6-0.1-0.9-0.1-1.4-0.2
				c-0.6-0.1-0.9-0.1-1.4-0.1c-0.3,0-0.4,0-0.7,0c-0.3-0.1-0.5-0.2-0.8-0.3c-1.1-0.4-2.1-0.7-3.2-1c-1.1-0.4-2.3-1.2-3.4-1.6
				c-0.6-0.3-1.1-0.4-1.7-0.8c-0.7-0.5-1.1-0.7-1.8-1.1c-0.7-0.4-1.1-0.6-1.8-1c-0.4-0.2-0.5-0.3-0.9-0.4c-0.3-0.2-0.6-0.4-0.9-0.6
				c-1.3-0.8-2.5-1.5-3.8-2.2c-5.2-3.2-10.7-6.1-16.4-8.5c-1.4-0.6-2.9-1.3-4.3-1.8c-0.7-0.3-1.4-0.5-2.2-0.7
				c-0.9-0.3-1.3-0.5-2.2-0.8c-1.5-0.5-2.9-0.8-4.4-1.2c-1.5-0.4-3-0.8-4.5-1c-6-1.3-11.9-1.6-17.8-1.6c-2.9,0.2-5.8,0.2-8.7,0.6
				c-0.2,0-0.3,0-0.5,0.1c-0.1,0-0.2,0-0.3,0c-0.1,0-0.1,0-0.1,0c-0.1,0,0.2,0,0,0c-0.4,0-0.7,0.1-1.1,0.1c-0.7,0.1-1.5,0.2-2.2,0.3
				c-0.7,0.1-1.5,0.3-2.2,0.4c-0.7,0.2-1.5,0.4-2.1,0.5c-1.4,0.3-2.7,0.6-4,1c-0.7,0.2-1.3,0.4-2,0.6c-0.7,0.2-1.3,0.4-2,0.6
				c-1.3,0.4-2.7,0.9-4,1.5c-1.3,0.5-2.6,1-3.9,1.6c-2.6,1.3-5,2.4-7.4,3.9c-1.2,0.8-2.4,1.5-3.5,2.2c-1.2,0.8-2.3,1.6-3.4,2.5
				c-8.3,6.2-16.2,14.7-22.2,23.1c-5.9,8-10.4,14.3-14,18.6c-0.9,1-1.8,1.9-2.6,2.9c-0.8,0.8-1.6,1.1-2.3,1.7
				c-0.7,0.5-1.4,1-1.9,1.4c-0.6,0.4-1.1,0.4-1.6,0.6C43.6,185,42.6,185.3,42.6,185.3z M42.6,185.3c0,0,1-0.3,3-0.7
				c0.5-0.2,1-0.1,1.6-0.5c0.6-0.4,1.2-0.9,2-1.4c0.7-0.5,1.5-0.9,2.3-1.6c0.8-0.9,1.7-1.7,2.6-2.6c3.7-3.9,8.2-9.8,14-17.3
				c6-8,13.8-16.1,22.1-21.8c1.1-0.8,2.3-1.6,3.4-2.3c1.2-0.7,2.4-1.3,3.6-2.1c2.4-1.4,4.9-2.4,7.5-3.6c1.3-0.5,2.6-1,3.9-1.4
				c1.3-0.5,2.7-0.9,4-1.2c0.7-0.2,1.4-0.3,2-0.5c0.7-0.1,1.4-0.4,2.1-0.5c1.4-0.3,2.8-0.6,4.3-0.7c0.7-0.1,1.4-0.2,2.1-0.3
				c0.7-0.1,1.4-0.2,2-0.2c0.7-0.1,1.4-0.1,2-0.1c0.4,0,0.6,0,1,0c-0.1,0,0.3,0,0.3,0c0.1,0,0.1,0,0.1,0c0.1,0,0.2,0,0.3,0
				c0.2,0,0.3,0,0.5,0c2.9-0.2,5.8,0.1,8.8,0.2c6,0.6,12.1,1.8,18.3,4.1c1.6,0.5,3.1,1.1,4.7,1.9c1.6,0.7,3.1,1.4,4.7,2.3
				c0.9,0.5,1.4,0.8,2.3,1.4c0.8,0.4,1.5,0.9,2.3,1.4c1.5,0.9,3.1,2.1,4.6,3.3c1.5,1.1,3,2.3,4.5,3.6c0.4,0.3,0.7,0.7,1.1,1
				c0.4,0.4,0.7,0.5,1.1,0.9c0.9,0.8,1.3,1.2,2.2,2c0.9,0.9,1.3,1.3,2.1,2.2c0.7,0.8,1.4,1.4,2.1,2.2c1.4,1.4,2.7,3.1,4.1,4.7
				c5.3,6.3,10.2,12.9,14.8,18.5c1.2,1.1,2.3,2.4,3.5,3.6c0.3,0.4,0.5,0.5,0.9,0.9c0.4,0.2,0.5,0.4,0.9,0.6c0.7,0.5,1.1,0.7,1.8,1.2
				c0.7,0.5,1.1,0.7,1.8,1.2c0.3,0.3,0.6,0.3,0.8,0.4c0.3,0.1,0.5,0.1,0.8,0.2c1.2,0.3,1.9,0.5,3.1,0.9c0.5,0,0.2,0,0.3,0
				c0,0,0.1,0,0.1,0c0.1,0,0.1,0,0.2-0.1c0.2,0,0.3-0.1,0.4-0.1c0.3-0.1,0.5-0.1,0.9-0.2c0.7-0.2,1-0.3,1.7-0.5
				c0.6-0.3,1.1-0.2,1.7-0.8c0.7-0.6,1-0.9,1.7-1.5c0.7-0.6,1-0.9,1.7-1.6c0.3-0.3,0.5-0.5,0.8-0.8c0.3-0.5,0.5-0.8,0.8-1.3
				c1.3-2.2,1.9-3.3,3.1-5.5c5.1-12.1,6.4-24.6,7.1-37.6c0.1-4-0.1-8.3-0.4-12.5c-0.2-2.1-0.3-4.1-0.6-6.4c-0.4-2.7-0.6-4.1-1-6.7
				c-0.5-2.7-0.7-4-1.3-6.6c-0.3-1.3-0.4-2-0.7-3.3c-0.3-1.1-0.6-2.3-0.9-3.4c-1.3-4.6-2.7-9-4.3-13.4c-1.7-4.4-3.8-9-5.9-13.2
				c-1.1-2.1-2.2-4.2-3.4-6.3c-1.5-2.5-2.3-3.8-3.9-6.2c-2.7-4-5.4-7.8-8.6-11.5c-3.2-3.7-6.5-7.1-10-10.3c-1-1-1.6-1.4-2.6-2.3
				c-1.1-0.9-1.7-1.4-2.8-2.3c-2.2-1.8-3.4-2.6-5.7-4.2c-3.9-2.7-7.7-5.1-11.9-7.2c-4.1-2.1-8.4-3.9-12.6-5.4
				c-4.3-1.5-8.9-2.7-13.4-3.6c-9.3-2-17.3-2.1-25.6-1.7c-1.4,0.1-2.2,0.1-3.6,0.3c-1.3,0.2-1.9,0.2-3.2,0.4
				c-2.1,0.3-4.2,0.7-6.3,1.1c-4.2,0.9-8.3,1.9-12.3,3.3c-3.9,1.4-7.8,3-11.6,4.8c-1.9,0.9-3.7,1.8-5.5,2.9c-1.8,1-3.5,2.1-5.2,3.2
				c-3.4,2.2-6.7,4.6-9.9,7.1c-3.1,2.6-5.9,5.3-8.7,8.1c-5.7,5.6-10.3,11.6-14.5,18c-2.2,3.2-3.9,6.3-5.6,9.5
				c-1.7,3.2-3.3,6.4-4.8,9.7c-8.1,21.7-13,43.5-11.2,66.9c1.6,11.1,2.9,22.5,8.6,32.4c0.8,1.3,1.6,2.6,2.4,3.7
				c0.8,1,1.5,1.5,2.2,2.1c0.7,0.6,1.3,1.1,1.9,1.6c0.6,0.5,1.1,0.4,1.6,0.6C41.5,185,42.6,185.3,42.6,185.3z"/>
		</g>
		<g class="st5">
			<circle class="st6" cx="98.4" cy="147.8" r="84"/>
			<path class="st2" d="M182.5,147.8c0,0,0-0.5,0-1.5c0-1,0-2.5-0.2-4.4c-0.3-3.8-0.9-9.5-2.9-16.5c-2-6.9-5.3-15.2-10.9-23.4
				c-5.6-8.3-13.5-16.6-23.9-23.2c-5.2-3.3-10.9-6.1-17.1-8.2c-6.2-2.1-12.9-3.5-19.7-4.1c-1.7-0.2-3.5-0.2-5.2-0.3
				c-0.9,0-1.7,0-2.6,0l-1.3,0l-1.3,0.1c-0.9,0.1-1.8,0.1-2.7,0.2c-0.9,0.1-1.7,0.2-2.6,0.3c-1.7,0.1-3.5,0.5-5.3,0.8
				c-3.5,0.7-7.1,1.5-10.5,2.6c-1.8,0.5-3.5,1.2-5.2,1.8c-0.8,0.4-1.7,0.7-2.5,1.1l-1.3,0.5l-1.2,0.6c-13.4,6.3-25.3,16.7-33.6,29.7
				c-4.1,6.5-7.4,13.6-9.6,21l-0.8,2.8c-0.2,0.9-0.4,1.9-0.6,2.8l-0.3,1.4l-0.2,1.4c-0.2,1-0.4,1.9-0.5,2.9
				c-0.2,1.9-0.5,3.8-0.6,5.8c-0.1,1-0.2,1.9-0.2,2.9l-0.1,2.8c0.1,2,0,4.2,0.2,6c0.1,0.9,0.1,1.9,0.2,2.8l0.4,2.9
				c0.6,3.8,1.4,7.6,2.5,11.3c2.2,7.4,5.4,14.5,9.6,21c8.3,12.9,20.2,23.3,33.6,29.7l1.2,0.6l1.3,0.5c0.9,0.4,1.7,0.7,2.5,1.1
				c1.7,0.6,3.4,1.3,5.2,1.8c3.5,1.2,7,2,10.5,2.6c1.8,0.3,3.5,0.6,5.3,0.8c0.9,0.1,1.8,0.2,2.7,0.3c0.9,0.1,1.8,0.1,2.7,0.2
				l1.3,0.1l1.4,0c0.9,0,1.8,0,2.7,0c1.7-0.1,3.4-0.1,5.1-0.3c6.9-0.6,13.5-1.9,19.7-4.1c6.2-2.2,11.9-5,17.1-8.2
				c10.4-6.5,18.3-14.9,23.9-23.1c5.7-8.3,9-16.5,10.9-23.4c2-6.9,2.6-12.6,2.9-16.5c0.2-1.9,0.2-3.4,0.2-4.4
				C182.4,148.3,182.5,147.8,182.5,147.8z M182.5,147.8c0,0,0,0.5,0,1.5c0,1,0,2.5-0.2,4.4c-0.2,3.9-0.9,9.5-2.7,16.5
				c-0.9,3.5-2.2,7.3-3.9,11.3c-1.7,4-3.8,8.2-6.6,12.5c-5.4,8.5-13.1,17.3-23.3,24.5c-10.2,7.2-23.1,12.8-37.5,14.9
				c-1.8,0.3-3.7,0.4-5.5,0.6c-0.9,0.1-1.8,0.1-2.7,0.2l-1.4,0.1l-1.5,0c-0.9,0-1.9,0-2.8,0c-0.9,0-1.9-0.1-2.8-0.1
				c-1.9,0-3.8-0.3-5.7-0.5c-3.8-0.5-7.7-1.1-11.5-2.1c-1.9-0.4-3.8-1.1-5.7-1.7c-0.9-0.3-1.9-0.7-2.8-1l-1.4-0.5l-1.4-0.6
				c-7.5-3.1-14.6-7.3-21.2-12.5c-6.5-5.2-12.4-11.5-17.2-18.6c-2.4-3.5-4.6-7.3-6.5-11.2c-1.9-3.9-3.4-8-4.8-12.1
				c-1.3-4.1-2.2-8.4-2.9-12.7l-0.4-3.2c-0.2-1.1-0.2-2.2-0.3-3.3l-0.1-1.7c0-0.6,0-1-0.1-1.6l-0.1-3.1l0.1-3.4
				c0-1.1,0.1-2.2,0.2-3.3c0.1-2.2,0.4-4.3,0.7-6.5c0.7-4.3,1.6-8.6,2.9-12.7c1.3-4.1,2.9-8.2,4.8-12.1c1.9-3.9,4.1-7.6,6.5-11.1
				c4.8-7.1,10.7-13.3,17.2-18.5c6.5-5.2,13.7-9.4,21.1-12.5l1.4-0.6l1.4-0.5c0.9-0.3,1.9-0.7,2.8-1c1.9-0.6,3.8-1.2,5.7-1.7
				c3.8-1,7.7-1.7,11.5-2.1c1.9-0.2,3.8-0.4,5.7-0.5c1,0,1.9-0.1,2.9-0.1c0.9,0,1.8,0,2.7,0l1.4,0l1.4,0.1c0.9,0.1,1.9,0.1,2.8,0.2
				c1.8,0.2,3.7,0.3,5.5,0.6c14.4,2.1,27.3,7.7,37.5,14.9c10.2,7.3,17.9,16,23.3,24.5c2.7,4.3,4.9,8.5,6.6,12.5
				c1.7,4,3,7.8,3.9,11.3c1.9,7,2.5,12.7,2.7,16.5c0.2,1.9,0.1,3.4,0.2,4.4C182.5,147.3,182.5,147.8,182.5,147.8z"/>
		</g>
		<g>
			<path class="st4" d="M42.6,185.3c0,0-1-0.3-3-0.9c-0.5-0.2-1-0.2-1.6-0.7c-0.6-0.5-1.2-1.1-1.9-1.7c-0.7-0.7-1.4-1.2-2.2-2.2
				c-0.7-1.2-1.5-2.6-2.4-4c-5.6-10.8-6.5-22.7-7.8-34.5c-1-23.7,4.8-45.5,14.3-67c1.6-3.1,3.3-6.2,5.2-9.1c1.8-3,3.7-5.9,5.9-8.8
				c4.4-5.8,9-11.2,14.6-16.1c2.8-2.5,5.6-4.8,8.5-7c3.1-2.2,6.2-4.2,9.5-6c1.6-0.9,3.2-1.8,4.9-2.7c1.7-0.8,3.4-1.6,5.1-2.3
				c3.5-1.4,7-2.7,10.6-3.8c3.6-1.1,7.3-1.8,11-2.5c2.2-0.4,3.4-0.5,5.6-0.8c1.1-0.1,1.7-0.2,2.8-0.3c0.5,0-0.3,0-0.1,0
				c0.1,0,0.2,0,0.4,0c0.3,0,0.4,0,0.7,0c0.6,0,0.9,0,1.5-0.1c7.8-0.2,16.4,0.3,23.2,1.9c3.6,0.8,7.1,1.7,10.7,2.9
				c3.5,1.3,7,2.7,10.4,4.3c3.5,1.6,6.6,3.5,9.8,5.5c1.9,1.2,2.8,1.8,4.7,3.1c0.9,0.7,1.4,1,2.3,1.7c0.9,0.7,1.3,1,2.1,1.7
				c2.8,2.3,5.6,4.8,8.3,7.5c2.6,2.6,4.9,5.3,7.2,8.2c1.4,1.7,2,2.6,3.4,4.3c1,1.4,2,2.9,2.9,4.4c1.8,2.9,3.7,6.1,5.3,9.1
				c5.3,12.2,8.7,22.6,11.1,35.7c0.3,2.6,0.5,5.2,0.6,7.8c0,0.6,0.1,1.3,0.1,1.9c0,0.7,0,1-0.1,1.7c-0.1,1.4-0.1,2-0.2,3.4
				c-0.1,1.4-0.1,2.1-0.2,3.4c-0.1,1.1-0.3,1.9-0.5,2.9c-0.4,1.8-0.7,3.9-1.2,5.6c-0.7,1.8-1,2.7-1.7,4.4c-0.2,0.4-0.3,0.7-0.4,1.1
				c-0.2,0.3-0.3,0.5-0.5,0.8c-0.4,0.6-0.6,1-1.1,1.6c-0.4,0.6-0.6,1-1.1,1.6c-0.3,0.6-0.8,0.7-1.2,1.1c-0.5,0.4-0.8,0.6-1.3,0.9
				c-0.3,0.2-0.4,0.3-0.6,0.5c-0.1,0.1-0.2,0.1-0.3,0.2c-0.1,0-0.1,0.1-0.2,0.1c0,0,0,0-0.1,0.1c0.1,0-0.3,0.1,0.1,0
				c-1.2,0.3-1.9,0.5-3.1,0.8c-0.3,0.1-0.5,0.1-0.8,0.2c-0.3,0.1-0.5,0.2-0.8,0.1c-0.6-0.1-0.9-0.1-1.4-0.2
				c-0.6-0.1-0.9-0.1-1.4-0.1c-0.3,0-0.4,0-0.7,0c-0.3-0.1-0.5-0.2-0.8-0.3c-1.1-0.4-2.1-0.7-3.2-1c-1.1-0.4-2.3-1.2-3.4-1.6
				c-0.6-0.3-1.1-0.4-1.7-0.8c-0.7-0.5-1.1-0.7-1.8-1.1c-0.7-0.4-1.1-0.6-1.8-1c-0.4-0.2-0.5-0.3-0.9-0.4c-0.3-0.2-0.6-0.4-0.9-0.6
				c-1.3-0.8-2.5-1.5-3.8-2.2c-5.2-3.2-10.7-6.1-16.4-8.5c-1.4-0.6-2.9-1.3-4.3-1.8c-0.7-0.3-1.4-0.5-2.2-0.7
				c-0.9-0.3-1.3-0.5-2.2-0.8c-1.5-0.5-2.9-0.8-4.4-1.2c-1.5-0.4-3-0.8-4.5-1c-6-1.3-11.9-1.6-17.8-1.6c-2.9,0.2-5.8,0.2-8.7,0.6
				c-0.2,0-0.3,0-0.5,0.1c-0.1,0-0.2,0-0.3,0c-0.1,0-0.1,0-0.1,0c-0.1,0,0.2,0,0,0c-0.4,0-0.7,0.1-1.1,0.1c-0.7,0.1-1.5,0.2-2.2,0.3
				c-0.7,0.1-1.5,0.3-2.2,0.4c-0.7,0.2-1.5,0.4-2.1,0.5c-1.4,0.3-2.7,0.6-4,1c-0.7,0.2-1.3,0.4-2,0.6c-0.7,0.2-1.3,0.4-2,0.6
				c-1.3,0.4-2.7,0.9-4,1.5c-1.3,0.5-2.6,1-3.9,1.6c-2.6,1.3-5,2.4-7.4,3.9c-1.2,0.8-2.4,1.5-3.5,2.2c-1.2,0.8-2.3,1.6-3.4,2.5
				c-8.3,6.2-16.2,14.7-22.2,23.1c-5.9,8-10.4,14.3-14,18.6c-0.9,1-1.8,1.9-2.6,2.9c-0.8,0.8-1.6,1.1-2.3,1.7
				c-0.7,0.5-1.4,1-1.9,1.4c-0.6,0.4-1.1,0.4-1.6,0.6C43.6,185,42.6,185.3,42.6,185.3z M42.6,185.3c0,0,1-0.3,3-0.7
				c0.5-0.2,1-0.1,1.6-0.5c0.6-0.4,1.2-0.9,2-1.4c0.7-0.5,1.5-0.9,2.3-1.6c0.8-0.9,1.7-1.7,2.6-2.6c3.7-3.9,8.2-9.8,14-17.3
				c6-8,13.8-16.1,22.1-21.8c1.1-0.8,2.3-1.6,3.4-2.3c1.2-0.7,2.4-1.3,3.6-2.1c2.4-1.4,4.9-2.4,7.5-3.6c1.3-0.5,2.6-1,3.9-1.4
				c1.3-0.5,2.7-0.9,4-1.2c0.7-0.2,1.4-0.3,2-0.5c0.7-0.1,1.4-0.4,2.1-0.5c1.4-0.3,2.8-0.6,4.3-0.7c0.7-0.1,1.4-0.2,2.1-0.3
				c0.7-0.1,1.4-0.2,2-0.2c0.7-0.1,1.4-0.1,2-0.1c0.4,0,0.6,0,1,0c-0.1,0,0.3,0,0.3,0c0.1,0,0.1,0,0.1,0c0.1,0,0.2,0,0.3,0
				c0.2,0,0.3,0,0.5,0c2.9-0.2,5.8,0.1,8.8,0.2c6,0.6,12.1,1.8,18.3,4.1c1.6,0.5,3.1,1.1,4.7,1.9c1.6,0.7,3.1,1.4,4.7,2.3
				c0.9,0.5,1.4,0.8,2.3,1.4c0.8,0.4,1.5,0.9,2.3,1.4c1.5,0.9,3.1,2.1,4.6,3.3c1.5,1.1,3,2.3,4.5,3.6c0.4,0.3,0.7,0.7,1.1,1
				c0.4,0.4,0.7,0.5,1.1,0.9c0.9,0.8,1.3,1.2,2.2,2c0.9,0.9,1.3,1.3,2.1,2.2c0.7,0.8,1.4,1.4,2.1,2.2c1.4,1.4,2.7,3.1,4.1,4.7
				c5.3,6.3,10.2,12.9,14.8,18.5c1.2,1.1,2.3,2.4,3.5,3.6c0.3,0.4,0.5,0.5,0.9,0.9c0.4,0.2,0.5,0.4,0.9,0.6c0.7,0.5,1.1,0.7,1.8,1.2
				c0.7,0.5,1.1,0.7,1.8,1.2c0.3,0.3,0.6,0.3,0.8,0.4c0.3,0.1,0.5,0.1,0.8,0.2c1.2,0.3,1.9,0.5,3.1,0.9c0.5,0,0.2,0,0.3,0
				c0,0,0.1,0,0.1,0c0.1,0,0.1,0,0.2-0.1c0.2,0,0.3-0.1,0.4-0.1c0.3-0.1,0.5-0.1,0.9-0.2c0.7-0.2,1-0.3,1.7-0.5
				c0.6-0.3,1.1-0.2,1.7-0.8c0.7-0.6,1-0.9,1.7-1.5c0.7-0.6,1-0.9,1.7-1.6c0.3-0.3,0.5-0.5,0.8-0.8c0.3-0.5,0.5-0.8,0.8-1.3
				c1.3-2.2,1.9-3.3,3.1-5.5c5.1-12.1,6.4-24.6,7.1-37.6c0.1-4-0.1-8.3-0.4-12.5c-0.2-2.1-0.3-4.1-0.6-6.4c-0.4-2.7-0.6-4.1-1-6.7
				c-0.5-2.7-0.7-4-1.3-6.6c-0.3-1.3-0.4-2-0.7-3.3c-0.3-1.1-0.6-2.3-0.9-3.4c-1.3-4.6-2.7-9-4.3-13.4c-1.7-4.4-3.8-9-5.9-13.2
				c-1.1-2.1-2.2-4.2-3.4-6.3c-1.5-2.5-2.3-3.8-3.9-6.2c-2.7-4-5.4-7.8-8.6-11.5c-3.2-3.7-6.5-7.1-10-10.3c-1-1-1.6-1.4-2.6-2.3
				c-1.1-0.9-1.7-1.4-2.8-2.3c-2.2-1.8-3.4-2.6-5.7-4.2c-3.9-2.7-7.7-5.1-11.9-7.2c-4.1-2.1-8.4-3.9-12.6-5.4
				c-4.3-1.5-8.9-2.7-13.4-3.6c-9.3-2-17.3-2.1-25.6-1.7c-1.4,0.1-2.2,0.1-3.6,0.3c-1.3,0.2-1.9,0.2-3.2,0.4
				c-2.1,0.3-4.2,0.7-6.3,1.1c-4.2,0.9-8.3,1.9-12.3,3.3c-3.9,1.4-7.8,3-11.6,4.8c-1.9,0.9-3.7,1.8-5.5,2.9c-1.8,1-3.5,2.1-5.2,3.2
				c-3.4,2.2-6.7,4.6-9.9,7.1c-3.1,2.6-5.9,5.3-8.7,8.1c-5.7,5.6-10.3,11.6-14.5,18c-2.2,3.2-3.9,6.3-5.6,9.5
				c-1.7,3.2-3.3,6.4-4.8,9.7c-8.1,21.7-13,43.5-11.2,66.9c1.6,11.1,2.9,22.5,8.6,32.4c0.8,1.3,1.6,2.6,2.4,3.7
				c0.8,1,1.5,1.5,2.2,2.1c0.7,0.6,1.3,1.1,1.9,1.6c0.6,0.5,1.1,0.4,1.6,0.6C41.5,185,42.6,185.3,42.6,185.3z"/>
		</g>
	</g>
</g>
</svg>
